<svg xmlns="http://www.w3.org/2000/svg" shape-rendering="geometricPrecision" text-rendering="geometricPrecision" image-rendering="optimizeQuality" fill-rule="evenodd" clip-rule="evenodd" viewBox="0 0 512 512"><path fill="#FD5" fill-rule="nonzero" d="M255.927 0h.072C397.361 0 512 114.638 512 255.999 512 397.361 397.361 512 255.999 512 114.639 512 0 397.361 0 255.999c0-67.882 27.004-133.047 74.977-181.022C122.782 26.986 187.807 0 255.57 0h.371-.014zm0 32.407c123.42 0 223.51 100.09 223.51 223.51 0 123.418-100.09 223.509-223.51 223.509-123.418 0-223.509-100.091-223.509-223.509v-.041c0-123.398 100.072-223.469 223.469-223.469h.054-.014z"/><path fill="#262626" d="M255.999 32.49c123.42 0 223.511 100.09 223.511 223.51 0 123.419-100.091 223.509-223.511 223.509C132.581 479.509 32.49 379.419 32.49 256v-.04c0-123.398 100.072-223.47 223.47-223.47h.053-.014z"/><path fill="#FD5" fill-rule="nonzero" d="M213.026 171.027v169.908h-46.137V213.503h-.973l-37.182 22.232v-39.129l41.816-25.579h42.476zm96.573-2.298c9.928 0 19.272 1.558 28.148 4.673 8.839 3.115 16.664 8.02 23.517 14.717 6.813 6.696 12.187 15.417 16.08 26.202 3.892 10.745 5.878 23.75 5.919 39.012.077 13.938-1.676 26.437-5.179 37.532-3.504 11.097-8.527 20.519-14.99 28.346-6.502 7.785-14.328 13.743-23.4 17.869-9.111 4.128-19.233 6.191-30.407 6.191-12.576 0-23.594-2.414-33.094-7.241-9.539-4.789-17.092-11.253-22.737-19.39-5.645-8.136-8.956-17.17-9.89-27.137h45.475c1.091 5.14 3.543 8.877 7.28 11.174 3.778 2.298 8.1 3.427 12.966 3.427 9.733 0 16.858-4.206 21.335-12.654 4.517-8.448 6.815-19.701 6.854-33.795h-.974c-2.18 5.178-5.45 9.655-9.811 13.355-4.361 3.698-9.461 6.54-15.263 8.526-5.801 1.986-11.953 2.999-18.416 2.999-10.24 0-19.194-2.298-26.864-6.931-7.709-4.634-13.705-10.94-18.026-19.001-4.283-8.059-6.464-17.209-6.542-27.486-.039-12.071 2.804-22.621 8.567-31.693 5.723-9.072 13.743-16.118 23.944-21.141 10.239-5.062 22.075-7.554 35.508-7.554zm.35 34.846c-4.594 0-8.682 1.051-12.225 3.154-3.582 2.103-6.385 4.945-8.41 8.527-1.986 3.582-2.998 7.67-2.919 12.186.038 4.556 1.088 8.605 3.113 12.187 1.986 3.62 4.75 6.463 8.293 8.564 3.505 2.104 7.554 3.154 12.148 3.154 3.348 0 6.502-.583 9.383-1.79a21.904 21.904 0 007.475-5.062 22.935 22.935 0 004.983-7.631c1.207-2.919 1.753-6.034 1.714-9.422-.039-4.516-1.09-8.604-3.153-12.186-2.063-3.582-4.828-6.424-8.371-8.527-3.543-2.103-7.553-3.154-12.031-3.154z"/></svg>